<mxfile host="65bd71144e" scale="1" border="20">
    <diagram name="CPU vs GPU Architecture" id="cpu-gpu-arch">
        <mxGraphModel dx="1781" dy="1008" grid="1" gridSize="10" guides="1" tooltips="1" connect="1" arrows="1" fold="1" page="1" pageScale="1" pageWidth="600" pageHeight="300" background="#5E5B61" math="0" shadow="0">
            <root>
                <mxCell id="0"/>
                <mxCell id="1" parent="0"/>
                <mxCell id="title" value="CPU versus GPU Architecture" style="text;html=1;strokeColor=none;fillColor=none;align=center;verticalAlign=middle;whiteSpace=wrap;rounded=0;fontSize=18;fontFamily=Arial;fontColor=#FFFFFF;" parent="1" vertex="1">
                    <mxGeometry x="200" y="20" width="200" height="30" as="geometry"/>
                </mxCell>
                <mxCell id="cpu-container" value="" style="rounded=0;whiteSpace=wrap;html=1;fillColor=#585556;strokeColor=#FFFFFF;strokeWidth=2;" parent="1" vertex="1">
                    <mxGeometry x="70" y="90" width="200" height="150" as="geometry"/>
                </mxCell>
                <mxCell id="cpu-title" value="CPU" style="text;html=1;strokeColor=none;fillColor=none;align=center;verticalAlign=middle;whiteSpace=wrap;rounded=0;fontSize=16;fontFamily=Arial;fontColor=#FFFFFF;" parent="1" vertex="1">
                    <mxGeometry x="145" y="60" width="50" height="20" as="geometry"/>
                </mxCell>
                <mxCell id="cpu-core-1" value="CPU Core" style="rounded=0;whiteSpace=wrap;html=1;fillColor=#C23555;strokeColor=#FFFFFF;fontColor=#FFFFFF;" parent="1" vertex="1">
                    <mxGeometry x="85" y="105" width="70" height="55" as="geometry"/>
                </mxCell>
                <mxCell id="cpu-core-2" value="CPU Core" style="rounded=0;whiteSpace=wrap;html=1;fillColor=#C23555;strokeColor=#FFFFFF;fontColor=#FFFFFF;" parent="1" vertex="1">
                    <mxGeometry x="185" y="105" width="70" height="55" as="geometry"/>
                </mxCell>
                <mxCell id="cpu-core-3" value="CPU Core" style="rounded=0;whiteSpace=wrap;html=1;fillColor=#C23555;strokeColor=#FFFFFF;fontColor=#FFFFFF;" parent="1" vertex="1">
                    <mxGeometry x="85" y="170" width="70" height="55" as="geometry"/>
                </mxCell>
                <mxCell id="cpu-core-4" value="CPU Core" style="rounded=0;whiteSpace=wrap;html=1;fillColor=#C23555;strokeColor=#FFFFFF;fontColor=#FFFFFF;" parent="1" vertex="1">
                    <mxGeometry x="185" y="170" width="70" height="55" as="geometry"/>
                </mxCell>
                <mxCell id="gpu-container" value="" style="rounded=0;whiteSpace=wrap;html=1;fillColor=#585556;strokeColor=#FFFFFF;strokeWidth=2;" parent="1" vertex="1">
                    <mxGeometry x="350" y="91" width="200" height="150" as="geometry"/>
                </mxCell>
                <mxCell id="gpu-title" value="GPU" style="text;html=1;strokeColor=none;fillColor=none;align=center;verticalAlign=middle;whiteSpace=wrap;rounded=0;fontSize=16;fontFamily=Arial;fontColor=#FFFFFF;" parent="1" vertex="1">
                    <mxGeometry x="425" y="60" width="50" height="20" as="geometry"/>
                </mxCell>
                <mxCell id="gpu-core-1-1" value="CU" style="rounded=0;whiteSpace=wrap;html=1;fillColor=#C23555;strokeColor=#FFFFFF;fontSize=8;fontColor=#FFFFFF;" parent="1" vertex="1">
                    <mxGeometry x="367.5" y="100" width="15" height="15" as="geometry"/>
                </mxCell>
                <mxCell id="gpu-core-1-2" value="CU" style="rounded=0;whiteSpace=wrap;html=1;fillColor=#C23555;strokeColor=#FFFFFF;fontSize=8;fontColor=#FFFFFF;" parent="1" vertex="1">
                    <mxGeometry x="392.5" y="100" width="15" height="15" as="geometry"/>
                </mxCell>
                <mxCell id="gpu-core-1-3" value="CU" style="rounded=0;whiteSpace=wrap;html=1;fillColor=#C23555;strokeColor=#FFFFFF;fontSize=8;fontColor=#FFFFFF;" parent="1" vertex="1">
                    <mxGeometry x="417.5" y="100" width="15" height="15" as="geometry"/>
                </mxCell>
                <mxCell id="gpu-core-1-4" value="CU" style="rounded=0;whiteSpace=wrap;html=1;fillColor=#C23555;strokeColor=#FFFFFF;fontSize=8;fontColor=#FFFFFF;" parent="1" vertex="1">
                    <mxGeometry x="442.5" y="100" width="15" height="15" as="geometry"/>
                </mxCell>
                <mxCell id="gpu-core-1-5" value="CU" style="rounded=0;whiteSpace=wrap;html=1;fillColor=#C23555;strokeColor=#FFFFFF;fontSize=8;fontColor=#FFFFFF;" parent="1" vertex="1">
                    <mxGeometry x="467.5" y="100" width="15" height="15" as="geometry"/>
                </mxCell>
                <mxCell id="gpu-core-1-6" value="CU" style="rounded=0;whiteSpace=wrap;html=1;fillColor=#C23555;strokeColor=#FFFFFF;fontSize=8;fontColor=#FFFFFF;" parent="1" vertex="1">
                    <mxGeometry x="492.5" y="100" width="15" height="15" as="geometry"/>
                </mxCell>
                <mxCell id="gpu-core-1-7" value="CU" style="rounded=0;whiteSpace=wrap;html=1;fillColor=#C23555;strokeColor=#FFFFFF;fontSize=8;fontColor=#FFFFFF;" parent="1" vertex="1">
                    <mxGeometry x="517.5" y="100" width="15" height="15" as="geometry"/>
                </mxCell>
                <mxCell id="gpu-core-2-1" value="CU" style="rounded=0;whiteSpace=wrap;html=1;fillColor=#C23555;strokeColor=#FFFFFF;fontSize=8;fontColor=#FFFFFF;" parent="1" vertex="1">
                    <mxGeometry x="367.5" y="123" width="15" height="15" as="geometry"/>
                </mxCell>
                <mxCell id="gpu-core-2-2" value="CU" style="rounded=0;whiteSpace=wrap;html=1;fillColor=#C23555;strokeColor=#FFFFFF;fontSize=8;fontColor=#FFFFFF;" parent="1" vertex="1">
                    <mxGeometry x="392.5" y="123" width="15" height="15" as="geometry"/>
                </mxCell>
                <mxCell id="gpu-core-2-3" value="CU" style="rounded=0;whiteSpace=wrap;html=1;fillColor=#C23555;strokeColor=#FFFFFF;fontSize=8;fontColor=#FFFFFF;" parent="1" vertex="1">
                    <mxGeometry x="417.5" y="123" width="15" height="15" as="geometry"/>
                </mxCell>
                <mxCell id="gpu-core-2-4" value="CU" style="rounded=0;whiteSpace=wrap;html=1;fillColor=#C23555;strokeColor=#FFFFFF;fontSize=8;fontColor=#FFFFFF;" parent="1" vertex="1">
                    <mxGeometry x="442.5" y="123" width="15" height="15" as="geometry"/>
                </mxCell>
                <mxCell id="gpu-core-2-5" value="CU" style="rounded=0;whiteSpace=wrap;html=1;fillColor=#C23555;strokeColor=#FFFFFF;fontSize=8;fontColor=#FFFFFF;" parent="1" vertex="1">
                    <mxGeometry x="467.5" y="123" width="15" height="15" as="geometry"/>
                </mxCell>
                <mxCell id="gpu-core-2-6" value="CU" style="rounded=0;whiteSpace=wrap;html=1;fillColor=#C23555;strokeColor=#FFFFFF;fontSize=8;fontColor=#FFFFFF;" parent="1" vertex="1">
                    <mxGeometry x="492.5" y="123" width="15" height="15" as="geometry"/>
                </mxCell>
                <mxCell id="gpu-core-2-7" value="CU" style="rounded=0;whiteSpace=wrap;html=1;fillColor=#C23555;strokeColor=#FFFFFF;fontSize=8;fontColor=#FFFFFF;" parent="1" vertex="1">
                    <mxGeometry x="517.5" y="123" width="15" height="15" as="geometry"/>
                </mxCell>
                <mxCell id="gpu-core-3-1" value="CU" style="rounded=0;whiteSpace=wrap;html=1;fillColor=#C23555;strokeColor=#FFFFFF;fontSize=8;fontColor=#FFFFFF;" parent="1" vertex="1">
                    <mxGeometry x="367.5" y="146" width="15" height="15" as="geometry"/>
                </mxCell>
                <mxCell id="gpu-core-3-2" value="CU" style="rounded=0;whiteSpace=wrap;html=1;fillColor=#C23555;strokeColor=#FFFFFF;fontSize=8;fontColor=#FFFFFF;" parent="1" vertex="1">
                    <mxGeometry x="392.5" y="146" width="15" height="15" as="geometry"/>
                </mxCell>
                <mxCell id="gpu-core-3-3" value="CU" style="rounded=0;whiteSpace=wrap;html=1;fillColor=#C23555;strokeColor=#FFFFFF;fontSize=8;fontColor=#FFFFFF;" parent="1" vertex="1">
                    <mxGeometry x="417.5" y="146" width="15" height="15" as="geometry"/>
                </mxCell>
                <mxCell id="gpu-core-3-4" value="CU" style="rounded=0;whiteSpace=wrap;html=1;fillColor=#C23555;strokeColor=#FFFFFF;fontSize=8;fontColor=#FFFFFF;" parent="1" vertex="1">
                    <mxGeometry x="442.5" y="146" width="15" height="15" as="geometry"/>
                </mxCell>
                <mxCell id="gpu-core-3-5" value="CU" style="rounded=0;whiteSpace=wrap;html=1;fillColor=#C23555;strokeColor=#FFFFFF;fontSize=8;fontColor=#FFFFFF;" parent="1" vertex="1">
                    <mxGeometry x="467.5" y="146" width="15" height="15" as="geometry"/>
                </mxCell>
                <mxCell id="gpu-core-3-6" value="CU" style="rounded=0;whiteSpace=wrap;html=1;fillColor=#C23555;strokeColor=#FFFFFF;fontSize=8;fontColor=#FFFFFF;" parent="1" vertex="1">
                    <mxGeometry x="492.5" y="146" width="15" height="15" as="geometry"/>
                </mxCell>
                <mxCell id="gpu-core-3-7" value="CU" style="rounded=0;whiteSpace=wrap;html=1;fillColor=#C23555;strokeColor=#FFFFFF;fontSize=8;fontColor=#FFFFFF;" parent="1" vertex="1">
                    <mxGeometry x="517.5" y="146" width="15" height="15" as="geometry"/>
                </mxCell>
                <mxCell id="gpu-core-4-1" value="CU" style="rounded=0;whiteSpace=wrap;html=1;fillColor=#C23555;strokeColor=#FFFFFF;fontSize=8;fontColor=#FFFFFF;" parent="1" vertex="1">
                    <mxGeometry x="367.5" y="170" width="15" height="15" as="geometry"/>
                </mxCell>
                <mxCell id="gpu-core-4-2" value="CU" style="rounded=0;whiteSpace=wrap;html=1;fillColor=#C23555;strokeColor=#FFFFFF;fontSize=8;fontColor=#FFFFFF;" parent="1" vertex="1">
                    <mxGeometry x="392.5" y="170" width="15" height="15" as="geometry"/>
                </mxCell>
                <mxCell id="gpu-core-4-3" value="CU" style="rounded=0;whiteSpace=wrap;html=1;fillColor=#C23555;strokeColor=#FFFFFF;fontSize=8;fontColor=#FFFFFF;" parent="1" vertex="1">
                    <mxGeometry x="417.5" y="170" width="15" height="15" as="geometry"/>
                </mxCell>
                <mxCell id="gpu-core-4-4" value="CU" style="rounded=0;whiteSpace=wrap;html=1;fillColor=#C23555;strokeColor=#FFFFFF;fontSize=8;fontColor=#FFFFFF;" parent="1" vertex="1">
                    <mxGeometry x="442.5" y="170" width="15" height="15" as="geometry"/>
                </mxCell>
                <mxCell id="gpu-core-4-5" value="CU" style="rounded=0;whiteSpace=wrap;html=1;fillColor=#C23555;strokeColor=#FFFFFF;fontSize=8;fontColor=#FFFFFF;" parent="1" vertex="1">
                    <mxGeometry x="467.5" y="170" width="15" height="15" as="geometry"/>
                </mxCell>
                <mxCell id="gpu-core-4-6" value="CU" style="rounded=0;whiteSpace=wrap;html=1;fillColor=#C23555;strokeColor=#FFFFFF;fontSize=8;fontColor=#FFFFFF;" parent="1" vertex="1">
                    <mxGeometry x="492.5" y="170" width="15" height="15" as="geometry"/>
                </mxCell>
                <mxCell id="gpu-core-4-7" value="CU" style="rounded=0;whiteSpace=wrap;html=1;fillColor=#C23555;strokeColor=#FFFFFF;fontSize=8;fontColor=#FFFFFF;" parent="1" vertex="1">
                    <mxGeometry x="517.5" y="170" width="15" height="15" as="geometry"/>
                </mxCell>
                <mxCell id="gpu-core-5-1" value="CU" style="rounded=0;whiteSpace=wrap;html=1;fillColor=#C23555;strokeColor=#FFFFFF;fontSize=8;fontColor=#FFFFFF;" parent="1" vertex="1">
                    <mxGeometry x="367.5" y="193" width="15" height="15" as="geometry"/>
                </mxCell>
                <mxCell id="gpu-core-5-2" value="CU" style="rounded=0;whiteSpace=wrap;html=1;fillColor=#C23555;strokeColor=#FFFFFF;fontSize=8;fontColor=#FFFFFF;" parent="1" vertex="1">
                    <mxGeometry x="392.5" y="193" width="15" height="15" as="geometry"/>
                </mxCell>
                <mxCell id="gpu-core-5-3" value="CU" style="rounded=0;whiteSpace=wrap;html=1;fillColor=#C23555;strokeColor=#FFFFFF;fontSize=8;fontColor=#FFFFFF;" parent="1" vertex="1">
                    <mxGeometry x="417.5" y="193" width="15" height="15" as="geometry"/>
                </mxCell>
                <mxCell id="gpu-core-5-4" value="CU" style="rounded=0;whiteSpace=wrap;html=1;fillColor=#C23555;strokeColor=#FFFFFF;fontSize=8;fontColor=#FFFFFF;" parent="1" vertex="1">
                    <mxGeometry x="442.5" y="193" width="15" height="15" as="geometry"/>
                </mxCell>
                <mxCell id="gpu-core-5-5" value="CU" style="rounded=0;whiteSpace=wrap;html=1;fillColor=#C23555;strokeColor=#FFFFFF;fontSize=8;fontColor=#FFFFFF;" parent="1" vertex="1">
                    <mxGeometry x="467.5" y="193" width="15" height="15" as="geometry"/>
                </mxCell>
                <mxCell id="gpu-core-5-6" value="CU" style="rounded=0;whiteSpace=wrap;html=1;fillColor=#C23555;strokeColor=#FFFFFF;fontSize=8;fontColor=#FFFFFF;" parent="1" vertex="1">
                    <mxGeometry x="492.5" y="193" width="15" height="15" as="geometry"/>
                </mxCell>
                <mxCell id="gpu-core-5-7" value="CU" style="rounded=0;whiteSpace=wrap;html=1;fillColor=#C23555;strokeColor=#FFFFFF;fontSize=8;fontColor=#FFFFFF;" parent="1" vertex="1">
                    <mxGeometry x="517.5" y="193" width="15" height="15" as="geometry"/>
                </mxCell>
                <mxCell id="gpu-core-6-1" value="CU" style="rounded=0;whiteSpace=wrap;html=1;fillColor=#C23555;strokeColor=#FFFFFF;fontSize=8;fontColor=#FFFFFF;" parent="1" vertex="1">
                    <mxGeometry x="367.5" y="216" width="15" height="15" as="geometry"/>
                </mxCell>
                <mxCell id="gpu-core-6-2" value="CU" style="rounded=0;whiteSpace=wrap;html=1;fillColor=#C23555;strokeColor=#FFFFFF;fontSize=8;fontColor=#FFFFFF;" parent="1" vertex="1">
                    <mxGeometry x="392.5" y="216" width="15" height="15" as="geometry"/>
                </mxCell>
                <mxCell id="gpu-core-6-3" value="CU" style="rounded=0;whiteSpace=wrap;html=1;fillColor=#C23555;strokeColor=#FFFFFF;fontSize=8;fontColor=#FFFFFF;" parent="1" vertex="1">
                    <mxGeometry x="417.5" y="216" width="15" height="15" as="geometry"/>
                </mxCell>
                <mxCell id="gpu-core-6-4" value="CU" style="rounded=0;whiteSpace=wrap;html=1;fillColor=#C23555;strokeColor=#FFFFFF;fontSize=8;fontColor=#FFFFFF;" parent="1" vertex="1">
                    <mxGeometry x="442.5" y="216" width="15" height="15" as="geometry"/>
                </mxCell>
                <mxCell id="gpu-core-6-5" value="CU" style="rounded=0;whiteSpace=wrap;html=1;fillColor=#C23555;strokeColor=#FFFFFF;fontSize=8;fontColor=#FFFFFF;" parent="1" vertex="1">
                    <mxGeometry x="467.5" y="216" width="15" height="15" as="geometry"/>
                </mxCell>
                <mxCell id="gpu-core-6-6" value="CU" style="rounded=0;whiteSpace=wrap;html=1;fillColor=#C23555;strokeColor=#FFFFFF;fontSize=8;fontColor=#FFFFFF;" parent="1" vertex="1">
                    <mxGeometry x="492.5" y="216" width="15" height="15" as="geometry"/>
                </mxCell>
                <mxCell id="gpu-core-6-7" value="CU" style="rounded=0;whiteSpace=wrap;html=1;fillColor=#C23555;strokeColor=#FFFFFF;fontSize=8;fontColor=#FFFFFF;" parent="1" vertex="1">
                    <mxGeometry x="517.5" y="216" width="15" height="15" as="geometry"/>
                </mxCell>
                <mxCell id="cpu-label-1" value="Large Complex Cores" style="text;html=1;strokeColor=none;fillColor=none;align=center;verticalAlign=middle;whiteSpace=wrap;rounded=0;fontSize=12;fontFamily=Arial;fontColor=#FFFFFF;" parent="1" vertex="1">
                    <mxGeometry x="120" y="250" width="150" height="20" as="geometry"/>
                </mxCell>
                <mxCell id="cpu-label-2" value="High Clock Speed (3-5 GHz)" style="text;html=1;strokeColor=none;fillColor=none;align=center;verticalAlign=middle;whiteSpace=wrap;rounded=0;fontSize=12;fontFamily=Arial;fontColor=#FFFFFF;" parent="1" vertex="1">
                    <mxGeometry x="85" y="270" width="170" height="20" as="geometry"/>
                </mxCell>
                <mxCell id="gpu-label-1" value="Many Simple Cores" style="text;html=1;strokeColor=none;fillColor=none;align=center;verticalAlign=middle;whiteSpace=wrap;rounded=0;fontSize=12;fontFamily=Arial;fontColor=#FFFFFF;" parent="1" vertex="1">
                    <mxGeometry x="375" y="250" width="150" height="20" as="geometry"/>
                </mxCell>
                <mxCell id="gpu-label-2" value="Lower Clock Speed (1-2 GHz)" style="text;html=1;strokeColor=none;fillColor=none;align=center;verticalAlign=middle;whiteSpace=wrap;rounded=0;fontSize=12;fontFamily=Arial;fontColor=#FFFFFF;" parent="1" vertex="1">
                    <mxGeometry x="362.5" y="270" width="175" height="20" as="geometry"/>
                </mxCell>
                <mxCell id="cpu-memory" value="Large Cache per Core" style="rounded=0;whiteSpace=wrap;html=1;fillColor=#9C2A44;strokeColor=#FFFFFF;fontSize=10;fontFamily=Arial;fontColor=#FFFFFF;align=center;" parent="1" vertex="1">
                    <mxGeometry x="70" y="250" width="200" height="20" as="geometry"/>
                </mxCell>
                <mxCell id="gpu-memory" value="Shared Memory across Cores" style="rounded=0;whiteSpace=wrap;html=1;fillColor=#9C2A44;strokeColor=#FFFFFF;fontSize=10;fontFamily=Arial;fontColor=#FFFFFF;align=center;" parent="1" vertex="1">
                    <mxGeometry x="350" y="250" width="200" height="20" as="geometry"/>
                </mxCell>
            </root>
        </mxGraphModel>
    </diagram>
</mxfile>